<svg xmlns="http://www.w3.org/2000/svg" viewBox="0 0 1241 1435"><defs><style>.a{fill:#f1a42b;}.b{fill:#fdcb26;}.c{fill:#f08231;}</style></defs><title>Asset 2spiraplan</title><polygon class="a" points="974 1231 1241 1077 1241 768 974 922 974 1231"/><polygon class="b" points="707 768 974 922 1241 768 974 614 707 768"/><polygon class="c" points="974 1231 974 922 707 768 707 1077 974 1231"/><polygon class="b" points="887 154 620 0 353 154 620 308 887 154"/><polygon class="c" points="620 616 620 308 353 154 353 462 620 616"/><polygon class="a" points="887 154 620 308 620 616 887 462 887 154"/><polygon class="c" points="0 766 0 1074 267 1229 267 920 0 766"/><polygon class="a" points="534 766 267 920 267 1229 534 1074 534 766"/><polygon class="b" points="0 766 267 920 534 766 267 612 0 766"/><polygon class="a" points="267 820 534 666 534 358 267 512 267 820"/><polygon class="b" points="0 358 267 512 534 358 267 204 0 358"/><polygon class="c" points="267 820 267 512 0 358 0 666 267 820"/><polygon class="a" points="620 1435 887 1281 887 972 620 1127 620 1435"/><polygon class="b" points="353 972 620 1127 887 972 620 818 353 972"/><polygon class="c" points="620 1435 620 1127 353 972 353 1281 620 1435"/><polygon class="c" points="707 360 707 668 974 823 974 514 707 360"/><polygon class="a" points="1241 360 974 514 974 823 1241 668 1241 360"/><polygon class="b" points="707 360 974 514 1241 360 974 206 707 360"/></svg>