<?xml version="1.0" encoding="utf-8"?>
<!-- Generator: Adobe Illustrator 22.0.1, SVG Export Plug-In . SVG Version: 6.00 Build 0)  -->
<svg version="1.1" id="Layer_1" xmlns="http://www.w3.org/2000/svg" xmlns:xlink="http://www.w3.org/1999/xlink" x="0px" y="0px"
	 viewBox="0 0 200 200" style="enable-background:new 0 0 200 200;" xml:space="preserve">
<style type="text/css">
	.st0{fill:#8B4789;}
	.st1{fill:#9FA4C4;}
</style>
<g>
	<g>
		<path class="st0" d="M200,100C200,44.8,155.2,0,100,0C75.9,0,53.9,8.5,36.6,22.6l140.7,140.7C191.5,146.1,200,124.1,200,100z"/>
		<path class="st1" d="M0,100c0,55.2,44.8,100,100,100c24.1,0,46.1-8.5,63.4-22.6L22.6,36.6C8.5,53.9,0,75.9,0,100z"/>
	</g>
	<g>
		<path class="st1" d="M100,46c-28,0-50.7,22.7-50.7,50.7h101.4C150.7,68.7,128,46,100,46z"/>
		<path class="st0" d="M100,147.5c28,0,50.7-22.7,50.7-50.7H49.3C49.3,124.8,72,147.5,100,147.5z"/>
	</g>
</g>
</svg>
